# xmcd
#
# Track frame offsets:
#	150
#	27345
#	43110
#	64560
#	83232
#	100500
#	120400
#	140970
#	161465
#	181447
#
# Disc length: 2679 seconds
#
# Revision: 1
# Processed by: cddbd v1.4PL0 Copyright (c) Steve Scherf et al.
# Submitted via: EasyCDDAExtractor 5.1.0
#
DISCID=7f0a750a
DTITLE=Sam Green - God Blessed Our Love
DYEAR=1996
DGENRE=Blues
TTITLE0=God Blessed Our Love
TTITLE1=Trying To Hold On
TTITLE2=All Night
TTITLE3=You Made Me Over
TTITLE4=Skin Deep
TTITLE5=They Don't Make Em Like You
TTITLE6=No Other Love
TTITLE7=I'm Missing You
TTITLE8=Let's Get Married
TTITLE9=Is Someone Stealing Your Heart Tell Me
EXTD=
EXTT0=
EXTT1=
EXTT2=
EXTT3=
EXTT4=
EXTT5=
EXTT6=
EXTT7=
EXTT8=
EXTT9=
PLAYORDER=
